<?xml version="1.0" encoding="UTF-8" standalone="no"?>
<!-- Created with Inkscape (http://www.inkscape.org/) -->

<svg
   xmlns:dc="http://purl.org/dc/elements/1.1/"
   xmlns:cc="http://creativecommons.org/ns#"
   xmlns:rdf="http://www.w3.org/1999/02/22-rdf-syntax-ns#"
   xmlns:svg="http://www.w3.org/2000/svg"
   xmlns="http://www.w3.org/2000/svg"
   xmlns:sodipodi="http://sodipodi.sourceforge.net/DTD/sodipodi-0.dtd"
   xmlns:inkscape="http://www.inkscape.org/namespaces/inkscape"
   width="210mm"
   height="297mm"
   viewBox="0 0 210 297"
   version="1.1"
   id="svg8"
   inkscape:version="0.92.4 (5da689c313, 2019-01-14)"
   sodipodi:docname="logo.svg">
  <defs
     id="defs2" />
  <sodipodi:namedview
     id="base"
     pagecolor="#ffffff"
     bordercolor="#666666"
     borderopacity="1.0"
     inkscape:pageopacity="0.0"
     inkscape:pageshadow="2"
     inkscape:zoom="0.35"
     inkscape:cx="400"
     inkscape:cy="560"
     inkscape:document-units="mm"
     inkscape:current-layer="layer1"
     showgrid="false"
     inkscape:window-width="1920"
     inkscape:window-height="1001"
     inkscape:window-x="-9"
     inkscape:window-y="-9"
     inkscape:window-maximized="1" />
  <metadata
     id="metadata5">
    <rdf:RDF>
      <cc:Work
         rdf:about="">
        <dc:format>image/svg+xml</dc:format>
        <dc:type
           rdf:resource="http://purl.org/dc/dcmitype/StillImage" />
        <dc:title></dc:title>
      </cc:Work>
    </rdf:RDF>
  </metadata>
  <g
     inkscape:label="Capa 1"
     inkscape:groupmode="layer"
     id="layer1">
    <g
       id="g43"
       transform="translate(-225.27381,3.0238129)">
      <path
         style="fill:#fdfefe;stroke-width:0.35277778"
         d="m 237.01628,190.4107 v -90.31111 h 90.31111 90.31111 v 90.31111 90.31111 h -90.31111 -90.31111 z m 143.90883,82.38628 c 2.97235,-1.53706 6.26644,-8.59689 7.61228,-16.31455 0.28936,-1.65931 0.52611,-3.15488 0.52611,-3.3235 0,-0.16861 -1.74625,-0.30656 -3.88056,-0.30656 -3.56101,0 -3.88055,0.0545 -3.88055,0.66236 0,1.69097 -2.61447,1.87571 -3.03148,0.21421 -0.21769,-0.86734 -0.26103,-0.87657 -4.11333,-0.87657 h -3.89333 l 0.21357,2.20486 c 0.45586,4.70619 2.92582,11.9824 5.15805,15.19501 1.08659,1.5638 3.04448,3.05882 4.00834,3.06069 0.15516,3e-4 0.73156,-0.23188 1.2809,-0.51595 z m -30.94639,-3.64851 c 2.11174,-0.85318 3.62608,-2.29916 4.07169,-3.88788 0.14546,-0.51862 0.26448,-5.78482 0.26448,-11.70267 0,-12.21052 -0.14401,-13.04362 -2.64542,-15.30349 -2.68761,-2.42809 -2.86599,-2.44745 -24.58259,-2.6674 l -19.4669,-0.19716 0.6365,-1.87934 c 0.74518,-2.20025 2.7794,-4.45487 4.54514,-5.03762 1.92409,-0.63501 5.83201,-0.16993 10.15504,1.20853 5.25426,1.67541 7.70128,2.0907 12.30823,2.0889 8.54559,-0.004 15.09739,-3.1487 17.71859,-8.50624 0.78664,-1.60784 0.97102,-2.47032 0.97443,-4.55808 0.004,-2.12785 0.0961,-2.54558 0.53337,-2.40552 0.29104,0.0932 1.63127,0.58524 2.9783,1.09338 3.78484,1.42777 8.21743,1.94044 16.77725,1.94044 13.18091,0 19.45941,-1.57364 24.21207,-6.06852 3.32704,-3.14657 5.24661,-7.10593 6.09449,-12.57065 0.2589,-1.66869 0.38359,-13.73186 0.38047,-36.81036 -0.004,-32.55155 -0.0399,-34.49938 -0.68684,-37.63454 -1.87509,-9.08741 -7.483,-14.80757 -16.84533,-17.18252 -7.17778,-1.82079 -19.90278,-1.88751 -26.79269,-0.14046 -7.17523,1.81938 -11.46149,5.54925 -14.06931,12.24298 l -0.9934,2.54982 -44.65181,0.096 c -42.6851,0.0918 -44.7181,0.12499 -46.15688,0.75398 -1.919,0.83893 -4.10341,3.31225 -4.63455,5.24751 -0.30505,1.11146 -0.38616,10.51397 -0.31143,36.10287 l 0.10105,34.60001 1.06766,1.72677 c 0.66146,1.06982 1.72451,2.13297 2.79416,2.79443 l 1.7265,1.06766 20.22459,0.0992 20.22459,0.0992 v 2.81118 2.81117 h -18.08956 c -15.80151,0 -18.18873,0.0695 -18.87361,0.54917 -0.96743,0.67762 -1.04021,2.28466 -0.14036,3.09901 0.59043,0.53434 4.47989,0.58994 47.00763,0.67204 l 46.36395,0.0895 0.10916,1.51329 c 0.37285,5.16869 -4.08901,10.10974 -10.52512,11.6555 -5.11418,1.22827 -11.01309,0.72933 -18.6882,-1.58069 -3.64712,-1.09769 -4.9588,-1.32984 -7.58473,-1.34238 -2.86135,-0.0136 -3.342,0.083 -4.86556,0.97856 -2.09083,1.229 -3.63146,3.30383 -4.40687,5.93489 l -0.59197,2.00861 -18.35113,0.14983 c -12.654,0.10331 -18.74734,0.27783 -19.62735,0.56215 -2.02421,0.654 -3.59206,1.89377 -4.54461,3.59361 l -0.88195,1.57385 v 11.81805 c 0,10.58732 0.0643,11.93556 0.61699,12.94635 1.13297,2.07187 3.1039,3.13514 6.96773,3.75893 0.48507,0.0783 18.26507,0.12198 39.51111,0.097 l 38.62917,-0.0454 z m -71.07008,-4.6827 c -0.71301,-0.41529 -0.80807,-1.40381 -0.19403,-2.01785 0.61067,-0.61067 38.05378,-0.61067 38.66445,0 0.57494,0.57494 0.53184,1.18165 -0.13104,1.84452 -0.49021,0.49022 -2.7048,0.55313 -19.13819,0.54364 -11.96489,-0.007 -18.80371,-0.13879 -19.20119,-0.37031 z m 51.35015,-4.42941 c -0.31539,-0.82189 0.34223,-1.69793 1.36771,-1.82197 1.07567,-0.13011 1.83569,0.70431 1.5271,1.6766 -0.29429,0.92723 -2.5513,1.04056 -2.89481,0.14537 z m 5.04511,0.0224 c -0.11708,-0.3051 -0.044,-0.87023 0.16237,-1.25586 0.73987,-1.38246 3.2499,-0.23068 2.68806,1.23347 -0.29726,0.77465 -2.55496,0.79239 -2.85043,0.0224 z m 5.22039,0.0687 c -0.44837,-1.16844 10e-4,-1.80702 1.27182,-1.80702 1.13136,0 1.22989,0.0848 1.22989,1.05833 0,0.93663 -0.13213,1.07107 -1.14895,1.16906 -0.77475,0.0747 -1.21533,-0.0623 -1.35276,-0.42037 z m -66.39579,-2.75953 c -0.9642,-0.9642 0.0348,-2.41578 1.47333,-2.14079 1.04875,0.20048 1.41165,0.9503 0.91188,1.88412 -0.40714,0.76076 -1.73792,0.90396 -2.38521,0.25667 z m 6.64628,-0.0889 c -0.75478,-0.90945 -0.10879,-1.95721 1.2067,-1.95721 1.32013,0 1.81159,0.71209 1.23501,1.78944 -0.42881,0.80124 -1.83575,0.89791 -2.44171,0.16777 z m 6.70279,2e-5 c -0.23381,-0.28173 -0.37099,-0.79766 -0.30485,-1.14653 0.16541,-0.87246 2.57326,-1.10121 2.89046,-0.2746 0.56179,1.46398 -1.57524,2.63855 -2.58561,1.42113 z m 6.70277,0 c -0.2338,-0.28173 -0.37098,-0.79766 -0.30484,-1.14653 0.16541,-0.87246 2.57326,-1.10121 2.89046,-0.2746 0.56178,1.46398 -1.57524,2.63855 -2.58562,1.42113 z m 6.70278,0 c -0.65449,-0.78862 -0.29474,-1.70221 0.78388,-1.99067 0.87374,-0.23366 2.02428,0.31411 2.02428,0.96378 0,1.31262 -1.97242,2.03389 -2.80816,1.02689 z m 6.70278,0 c -0.6448,-0.77694 -0.30017,-1.70076 0.73805,-1.97841 1.02453,-0.27399 1.51838,-0.0738 1.79315,0.72674 0.48525,1.41386 -1.55803,2.42426 -2.5312,1.25167 z m 6.70278,0 c -0.776,-0.93502 -0.29309,-1.77175 1.0894,-1.88759 1.00976,-0.0846 1.31054,0.0331 1.45024,0.56725 0.40088,1.53297 -1.53004,2.53683 -2.53964,1.32034 z m 6.71758,0.0179 c -0.80698,-0.97235 -0.31751,-1.78893 1.14464,-1.9096 1.32772,-0.10958 1.34267,-0.0967 1.23179,1.05833 -0.0921,0.95938 -0.27598,1.18829 -1.02439,1.27529 -0.50167,0.0583 -1.11009,-0.1325 -1.35204,-0.42402 z m 9.73333,-1.32718 c -0.68887,-0.38551 -0.77244,-1.38265 -0.16664,-1.98844 0.58025,-0.58026 1.86936,-0.5322 2.38483,0.0889 0.4118,0.49619 0.21365,1.92951 -0.2743,1.9842 -0.13245,0.0148 -0.49126,0.0762 -0.79737,0.13625 -0.3061,0.0601 -0.82203,-0.0393 -1.14652,-0.22091 z m 4.90328,-0.14392 c -0.65585,-0.65584 -0.66148,-0.703 -0.18918,-1.58549 0.40821,-0.76275 1.73838,-0.90713 2.38648,-0.25903 0.63565,0.63566 0.51001,1.62212 -0.25903,2.0337 -0.92706,0.49614 -1.2882,0.4609 -1.93827,-0.18918 z m 5.04764,0.17536 c -0.20176,-0.12469 -0.31444,-0.68574 -0.2504,-1.24677 0.1037,-0.90843 0.25159,-1.02007 1.35117,-1.02007 1.02066,0 1.25471,0.14098 1.34999,0.81317 0.20143,1.42086 -1.179,2.23965 -2.45076,1.45366 z m -66.81433,-4.57683 c -0.29038,-0.9149 0.38427,-1.74695 1.41649,-1.74695 1.03221,0 1.70686,0.83205 1.41648,1.74695 -0.17125,0.53958 -0.52986,0.72249 -1.41648,0.72249 -0.88662,0 -1.24523,-0.18291 -1.41649,-0.72249 z m 6.70278,0 c -0.48455,-1.52669 1.87965,-2.48307 2.63753,-1.06695 0.57658,1.07735 0.0851,1.78944 -1.23501,1.78944 -0.87254,0 -1.23198,-0.18516 -1.40252,-0.72249 z m 6.70278,0 c -0.48455,-1.52669 1.87965,-2.48307 2.63753,-1.06695 0.57658,1.07735 0.0851,1.78944 -1.23502,1.78944 -0.87254,0 -1.23197,-0.18516 -1.40251,-0.72249 z m 6.64094,0.14537 c -0.56185,-1.46414 1.94818,-2.61592 2.68805,-1.23347 0.59347,1.10891 0.10573,1.81059 -1.25854,1.81059 -0.793,0 -1.28414,-0.19828 -1.42951,-0.57712 z m 6.70277,0 c -0.56184,-1.46414 1.94819,-2.61592 2.68806,-1.23347 0.59347,1.10891 0.10573,1.81059 -1.25854,1.81059 -0.793,0 -1.28414,-0.19828 -1.42952,-0.57712 z m 6.70278,0 c -0.30743,-0.80116 0.33183,-1.69233 1.3182,-1.83763 0.98102,-0.14451 1.74951,0.74384 1.49278,1.72559 -0.2347,0.89748 -2.47531,0.98679 -2.81098,0.11204 z m 6.70278,0 c -0.30744,-0.80116 0.33183,-1.69233 1.3182,-1.83763 0.98101,-0.14451 1.74951,0.74384 1.49278,1.72559 -0.2347,0.89748 -2.47531,0.98679 -2.81098,0.11204 z m 6.70278,0 c -0.34176,-0.89059 0.38779,-1.71594 1.51677,-1.71594 0.89278,0 1.03366,0.14289 1.13043,1.14653 0.1062,1.10139 0.0606,1.14653 -1.1576,1.14653 -0.84863,0 -1.34141,-0.19091 -1.4896,-0.57712 z m 9.83916,-0.19899 c -0.94891,-0.94891 -0.21009,-2.39889 1.22231,-2.39889 1.04538,0 1.68936,1.15852 1.17657,2.11667 -0.41868,0.78232 -1.74298,0.93812 -2.39888,0.28222 z m 5.08869,-0.11226 c -0.69319,-0.69319 -0.70732,-0.90994 -0.1124,-1.72354 0.96728,-1.32284 3.36637,0.0834 2.50004,1.46538 -0.52227,0.83315 -1.68675,0.95905 -2.38764,0.25816 z m 5.1595,0.30195 c -0.62619,-0.25267 -0.55529,-2.21408 0.089,-2.46131 1.02013,-0.39146 2.29227,0.18772 2.29227,1.04362 0,1.3426 -1.03712,1.96006 -2.38125,1.41769 z m -66.74914,-5.9231 c -0.23382,-0.28173 -0.32193,-0.83736 -0.19582,-1.23472 0.22726,-0.71603 0.39265,-0.81068 1.41649,-0.81068 0.97586,0 1.15817,0.0854 1.3721,0.64292 0.55589,1.44862 -1.59079,2.6098 -2.59277,1.40248 z m 6.70278,0 c -0.23382,-0.28173 -0.32194,-0.83736 -0.19582,-1.23472 0.22726,-0.71603 0.39265,-0.81068 1.41649,-0.81068 0.97585,0 1.15817,0.0854 1.3721,0.64292 0.55589,1.44862 -1.59079,2.6098 -2.59277,1.40248 z m 6.75928,0.0889 c -0.93153,-0.93152 -0.092,-2.40741 1.25236,-2.20176 0.24253,0.0371 0.58274,0.0873 0.756,0.11156 0.54183,0.0758 0.75707,1.12309 0.37685,1.83354 -0.40715,0.76075 -1.73792,0.90396 -2.38521,0.25666 z m 6.70277,0 c -0.93152,-0.93152 -0.092,-2.40741 1.25237,-2.20176 0.24253,0.0371 0.58274,0.0873 0.756,0.11156 0.54183,0.0758 0.75707,1.12309 0.37685,1.83354 -0.40715,0.76075 -1.73792,0.90396 -2.38522,0.25666 z m 6.70278,0 c -0.93152,-0.93152 -0.092,-2.40741 1.25236,-2.20176 0.24254,0.0371 0.58274,0.0873 0.75601,0.11156 0.54182,0.0758 0.75706,1.12309 0.37684,1.83354 -0.40714,0.76075 -1.73792,0.90396 -2.38521,0.25666 z m 7.18169,-0.0176 c -0.58915,-1.93949 -0.53178,-2.11667 0.68526,-2.11667 0.29104,0 0.6694,0.0198 0.8408,0.0441 0.4828,0.0683 0.69126,1.2892 0.33026,1.93427 -0.38069,0.68024 -1.66269,0.77575 -1.85632,0.1383 z m 6.22387,0.0176 c -0.93153,-0.93152 -0.092,-2.40741 1.25236,-2.20176 0.24253,0.0371 0.58121,0.0873 0.7526,0.11156 0.48281,0.0683 0.69127,1.2892 0.33027,1.93427 -0.37854,0.6764 -1.72486,0.7663 -2.33523,0.15593 z m 6.71794,0.0152 c -0.94499,-0.94499 -0.11936,-2.42443 1.2372,-2.21692 0.24253,0.0371 0.60978,0.0873 0.8161,0.11155 0.20632,0.0243 0.32538,0.56004 0.26458,1.19063 -0.0892,0.92495 -0.28147,1.1665 -0.99497,1.24988 -0.48643,0.0568 -1.08174,-0.094 -1.32291,-0.33514 z m 9.27866,-0.24768 c -0.34161,-1.07635 0.15169,-1.8136 1.2135,-1.8136 1.19541,0 1.90621,0.7769 1.59833,1.74696 -0.31195,0.98286 -2.50454,1.03481 -2.81183,0.0666 z m 5.08992,0.11513 c -0.72715,-0.87616 0.002,-1.75233 1.45915,-1.75233 1.09401,0 1.19627,0.0905 1.19627,1.05833 0,0.92429 -0.13785,1.07179 -1.08838,1.16455 -0.68255,0.0666 -1.26686,-0.10885 -1.56704,-0.47055 z m 5.0926,0.0547 c -0.44837,-1.16845 10e-4,-1.80703 1.27182,-1.80703 1.13136,0 1.22989,0.0848 1.22989,1.05833 0,0.93663 -0.13213,1.07107 -1.14895,1.16906 -0.77475,0.0747 -1.21533,-0.0622 -1.35276,-0.42036 z m -19.5469,-36.55565 v -2.82222 h 12.6313 12.6313 l 1.44191,2.82222 1.44191,2.82222 H 335.0506 320.97739 Z m 52.50838,-4.2244 c -3.05781,-0.92377 -4.94222,-3.23955 -5.16721,-6.35007 -0.0816,-1.12792 0.0364,-2.61046 0.26214,-3.29453 0.78152,-2.36803 4.29506,-4.82429 6.90086,-4.82429 2.5649,0 5.4524,1.93383 6.57402,4.40277 2.51963,5.5463 -2.80977,11.80623 -8.56981,10.06612 z m -112.65699,-6.53629 c -1.78505,-0.63145 -3.88544,-2.85167 -4.37884,-4.62868 -0.49664,-1.78864 -0.53473,-57.28993 -0.0405,-59.0132 0.544,-1.89683 1.81735,-3.47189 3.58514,-4.43464 l 1.63524,-0.89056 44.75503,0.008 c 42.52687,0.007 44.82544,0.0397 46.16918,0.65018 1.77852,0.80797 3.55113,2.80175 4.0327,4.5359 0.54636,1.96744 0.51114,56.74351 -0.0379,58.9239 -0.51754,2.05534 -2.70592,4.33658 -4.74433,4.94564 -2.294,0.68543 -89.02539,0.59364 -90.97574,-0.0963 z M 362.95795,150.73765 V 148.0774 H 377.951 c 14.52269,0 15.01519,0.0221 15.69861,0.70555 0.89139,0.89139 0.90551,2.49702 0.0315,3.57689 l -0.67412,0.83283 -15.02451,0.10262 -15.0245,0.10262 z m -0.005,-17.56511 c -0.003,-1.01865 -0.10183,-2.21422 -0.22041,-2.65682 l -0.21559,-0.80473 15.17675,0.0992 c 14.35231,0.0938 15.21707,0.13569 15.91901,0.77122 0.96867,0.87701 0.98744,2.78697 0.0367,3.73768 -0.68342,0.68342 -1.17592,0.70556 -15.69861,0.70556 h -14.99305 l -0.005,-1.85208 z m 15.17426,116.57228 c 0,-0.545 0.23308,-1.29906 0.51795,-1.67569 0.36281,-0.47968 0.5213,-1.62401 0.52916,-3.82059 l 0.0112,-3.13581 -2.05401,0.18626 c -4.41472,0.40031 -6.40902,2.43735 -6.69122,6.83462 l -0.167,2.60212 h 3.92695 3.92695 z m 10.66318,-1.30215 c -0.19594,-4.29611 -2.42104,-6.69845 -6.60413,-7.13018 l -1.94238,-0.20047 v 3.18116 c 0,2.39732 0.13038,3.28937 0.52916,3.62033 0.29104,0.24154 0.52917,0.86952 0.52917,1.39551 0,0.52599 0.11104,1.06738 0.24675,1.20309 0.13571,0.13571 1.84227,0.20186 3.79236,0.14699 l 3.54561,-0.0998 z m -10.682,-9.50232 c 0.72179,-0.86971 2.35975,-1.02043 3.53633,-0.32541 0.98922,0.58436 1.11063,0.58828 1.64571,0.0532 0.80249,-0.80249 0.3777,-1.6226 -1.1769,-2.27215 -1.79235,-0.7489 -3.79881,-0.4358 -5.08131,0.79291 -0.9527,0.91275 -0.97992,1.01381 -0.43513,1.61579 0.7011,0.7747 0.96154,0.79808 1.5113,0.13566 z m -1.97327,-3.7655 c 1.96649,-1.38611 4.21725,-1.69633 6.36275,-0.87696 0.84708,0.32351 1.82233,0.89999 2.1672,1.28107 0.80211,0.88633 1.30294,0.87425 2.13871,-0.0516 0.66739,-0.73929 0.66259,-0.75262 -0.69306,-1.92594 -3.50758,-3.0358 -9.18397,-2.87776 -12.18667,0.3393 -0.82731,0.88637 -0.83334,0.93295 -0.20991,1.62183 0.35303,0.39009 0.69199,0.70925 0.75326,0.70925 0.0613,0 0.81174,-0.49364 1.66772,-1.09699 z m 14.69209,-3.30837 c 0,-0.76291 -3.13634,-3.37608 -5.22988,-4.35749 -1.76945,-0.82949 -2.43244,-0.93854 -5.70623,-0.93854 -3.25291,0 -3.94251,0.11179 -5.66054,0.91762 -1.07601,0.50469 -2.54226,1.43202 -3.25834,2.06075 -1.09721,0.96336 -1.24361,1.25214 -0.93096,1.83634 0.61253,1.14452 1.22845,1.11473 3.02409,-0.14626 2.50874,-1.76175 3.86825,-2.19928 6.82575,-2.19669 3.04294,0.003 5.5264,0.96746 7.93137,3.08125 1.31452,1.15536 1.45649,1.20113 2.20486,0.71078 0.43993,-0.28825 0.79988,-0.72375 0.79988,-0.96776 z"
         id="path47"
         inkscape:connector-curvature="0" />
      <path
         style="fill:#003446;stroke-width:0.35277778"
         d="m 378.13356,272.69557 c -0.67571,-0.33925 -1.79967,-1.43875 -2.49769,-2.44333 -2.23223,-3.21261 -4.70219,-10.48882 -5.15805,-15.19501 l -0.21357,-2.20486 h 3.89333 c 3.8523,0 3.89564,0.009 4.11333,0.87657 0.41701,1.6615 3.03148,1.47676 3.03148,-0.21421 0,-0.60782 0.31954,-0.66236 3.88055,-0.66236 2.13431,0 3.88056,0.13795 3.88056,0.30656 0,0.16862 -0.23675,1.66419 -0.52611,3.3235 -1.34584,7.71766 -4.63993,14.77749 -7.61228,16.31455 -1.2525,0.64769 -1.30316,0.64585 -2.79155,-0.10141 z m -108.30895,-2.78515 c -3.86383,-0.62379 -5.83476,-1.68706 -6.96773,-3.75893 -0.55274,-1.01079 -0.61699,-2.35903 -0.61699,-12.94635 v -11.81805 l 0.88195,-1.57385 c 0.95255,-1.69984 2.5204,-2.93961 4.54461,-3.59361 0.88001,-0.28432 6.97335,-0.45884 19.62735,-0.56215 l 18.35113,-0.14983 0.59197,-2.00861 c 0.77541,-2.63106 2.31604,-4.70589 4.40687,-5.93489 1.52356,-0.89556 2.00421,-0.99223 4.86556,-0.97856 2.62593,0.0126 3.93761,0.24469 7.58473,1.34238 7.67511,2.31002 13.57402,2.80896 18.6882,1.58069 6.43611,-1.54576 10.89797,-6.48681 10.52512,-11.6555 l -0.10916,-1.51329 -46.36395,-0.0895 c -42.52774,-0.0821 -46.4172,-0.1377 -47.00763,-0.67204 -0.89985,-0.81435 -0.82707,-2.42139 0.14036,-3.09901 0.68488,-0.4797 3.0721,-0.54917 18.87361,-0.54917 h 18.08956 v -2.81117 -2.81118 l -20.22459,-0.0992 -20.22459,-0.0992 -1.7265,-1.06766 c -1.06965,-0.66146 -2.1327,-1.72461 -2.79416,-2.79443 l -1.06766,-1.72677 -0.10105,-34.60001 c -0.0747,-25.5889 0.006,-34.99141 0.31143,-36.10287 0.53114,-1.93526 2.71555,-4.40858 4.63455,-5.24751 1.43878,-0.62899 3.47178,-0.6622 46.15688,-0.75398 l 44.65181,-0.096 0.9934,-2.54982 c 2.60782,-6.69373 6.89408,-10.4236 14.06931,-12.24298 4.23907,-1.07488 13.08276,-1.59357 18.78764,-1.10191 9.24073,0.79639 14.70357,2.87654 19.10076,7.27321 3.09632,3.09596 4.74869,6.30083 5.74962,11.15168 0.6469,3.13516 0.68245,5.08299 0.68684,37.63454 0.003,23.0785 -0.12157,35.14167 -0.38047,36.81036 -0.84788,5.46472 -2.76745,9.42408 -6.09449,12.57065 -4.75266,4.49488 -11.03116,6.06852 -24.21207,6.06852 -8.55982,0 -12.99241,-0.51267 -16.77725,-1.94044 -1.34703,-0.50814 -2.68726,-1.00017 -2.9783,-1.09338 -0.43728,-0.14006 -0.5299,0.27767 -0.53337,2.40552 -0.004,2.08776 -0.18779,2.95024 -0.97443,4.55808 -2.6212,5.35754 -9.173,8.50289 -17.71859,8.50624 -4.60695,0.002 -7.05397,-0.41349 -12.30823,-2.0889 -4.32303,-1.37846 -8.23095,-1.84354 -10.15504,-1.20853 -1.76574,0.58275 -3.79996,2.83737 -4.54514,5.03762 l -0.6365,1.87934 19.4669,0.19716 c 21.7166,0.21995 21.89498,0.23931 24.58259,2.6674 2.50141,2.25987 2.64542,3.09297 2.64542,15.30349 0,5.91785 -0.11902,11.18405 -0.26448,11.70267 -0.44561,1.58872 -1.95995,3.0347 -4.07169,3.88788 l -2.01383,0.81362 -38.62917,0.0454 c -21.24604,0.0249 -39.02604,-0.0187 -39.51111,-0.097 z m 47.42341,-5.61798 c 0.66288,-0.66287 0.70598,-1.26958 0.13104,-1.84452 -0.61067,-0.61067 -38.05378,-0.61067 -38.66445,0 -0.61404,0.61404 -0.51898,1.60256 0.19403,2.01785 0.39748,0.23152 7.2363,0.3634 19.20119,0.37031 16.43339,0.009 18.64798,-0.0534 19.13819,-0.54364 z m 15.90558,-4.40145 c 0.30859,-0.97229 -0.45143,-1.80671 -1.5271,-1.6766 -1.02548,0.12404 -1.6831,1.00008 -1.36771,1.82197 0.34351,0.89519 2.60052,0.78186 2.89481,-0.14537 z m 5.00073,0.14537 c 0.56184,-1.46415 -1.94819,-2.61593 -2.68806,-1.23347 -0.59347,1.1089 -0.10573,1.81059 1.25854,1.81059 0.793,0 1.28414,-0.19829 1.42952,-0.57712 z m 4.87167,-0.65761 c 0,-0.97354 -0.0985,-1.05833 -1.22989,-1.05833 -0.90598,0 -1.26225,0.16802 -1.35275,0.63797 -0.23194,1.20434 0.22085,1.70631 1.43369,1.58942 1.01682,-0.098 1.14895,-0.23243 1.14895,-1.16906 z m -66.51229,-2.2675 c 0.49977,-0.93382 0.13687,-1.68364 -0.91188,-1.88412 -0.90315,-0.17265 -1.89666,0.49996 -1.89666,1.28405 0,1.28134 2.19316,1.74994 2.80854,0.60007 z m 6.70278,0 c 0.57658,-1.07735 0.0851,-1.78944 -1.23501,-1.78944 -0.87254,0 -1.23198,0.18516 -1.40252,0.72249 -0.48455,1.52669 1.87965,2.48307 2.63753,1.06695 z m 6.70278,0 c 0.20016,-0.37399 0.26492,-0.938 0.14391,-1.25334 -0.3172,-0.82661 -2.72505,-0.59786 -2.89046,0.2746 -0.28393,1.49761 2.02795,2.32146 2.74655,0.97874 z m 6.70278,0 c 0.20016,-0.37399 0.26491,-0.938 0.14391,-1.25334 -0.3172,-0.82661 -2.72505,-0.59786 -2.89046,0.2746 -0.28393,1.49761 2.02795,2.32146 2.74655,0.97874 z m 6.70404,-0.002 c 0.47,-0.8782 0.46449,-0.93182 -0.15979,-1.5561 -0.66889,-0.66889 -2.42449,-0.25889 -2.59096,0.60509 -0.28466,1.47746 2.03905,2.28084 2.75075,0.95101 z m 6.65511,0.065 c 0.34196,-0.6649 0.16369,-1.539 -0.38723,-1.89863 -0.57747,-0.37698 -2.19169,0.23823 -2.31585,0.88261 -0.27505,1.42759 2.04323,2.29897 2.70308,1.01602 z m 6.6992,0.0381 c 0.1783,-0.3186 0.24486,-0.88258 0.14792,-1.25328 -0.24175,-0.92446 -2.66433,-0.77644 -2.84449,0.1738 -0.27059,1.42723 1.99451,2.33398 2.69657,1.07948 z m 6.70229,-0.76638 c 0.11088,-1.15507 0.0959,-1.16791 -1.23179,-1.05833 -0.95979,0.0792 -1.37841,0.29227 -1.46429,0.74523 -0.17791,0.93839 0.63323,1.7091 1.67169,1.58839 0.74841,-0.087 0.93229,-0.31591 1.02439,-1.27529 z m 9.30079,-0.39125 c 0.48795,-0.0547 0.6861,-1.48801 0.2743,-1.9842 -0.51547,-0.6211 -1.80458,-0.66916 -2.38483,-0.0889 -0.96421,0.9642 -0.0635,2.47961 1.31316,2.20935 0.30611,-0.0601 0.66492,-0.1214 0.79737,-0.13625 z m 4.89766,-0.0394 c 0.76904,-0.41158 0.89468,-1.39804 0.25903,-2.0337 -0.6481,-0.6481 -1.97827,-0.50372 -2.38648,0.25903 -0.4723,0.88249 -0.46667,0.92965 0.18918,1.58549 0.65007,0.65008 1.01121,0.68532 1.93827,0.18918 z m 5.27202,-0.16826 c 0.22187,-0.26733 0.35152,-0.85197 0.28811,-1.29922 -0.0953,-0.67208 -0.32933,-0.81306 -1.34999,-0.81306 -1.09958,0 -1.24747,0.11164 -1.35117,1.02005 -0.064,0.56103 0.0486,1.12208 0.2504,1.24678 0.67151,0.41502 1.75422,0.33769 2.16265,-0.15444 z m -66.14401,-4.42227 c 0.29038,-0.9149 -0.38427,-1.74695 -1.41648,-1.74695 -1.03222,0 -1.70687,0.83205 -1.41649,1.74695 0.17126,0.53958 0.52987,0.72249 1.41649,0.72249 0.88662,0 1.24523,-0.18291 1.41648,-0.72249 z m 6.6584,0.16777 c 0.32653,-0.85093 -0.41869,-1.91472 -1.34132,-1.91472 -1.05974,0 -1.74081,0.8221 -1.44727,1.74695 0.28783,0.90686 2.45494,1.03724 2.78859,0.16777 z m 6.70278,0 c 0.32653,-0.85093 -0.41869,-1.91472 -1.34132,-1.91472 -1.05974,0 -1.74081,0.8221 -1.44727,1.74695 0.28782,0.90686 2.45494,1.03724 2.78859,0.16777 z m 6.70278,0 c 0.11707,-0.3051 0.044,-0.87024 -0.16238,-1.25587 -0.73987,-1.38245 -3.2499,-0.23067 -2.68805,1.23347 0.29726,0.77465 2.55495,0.79239 2.85043,0.0224 z m 6.70277,0 c 0.11708,-0.3051 0.044,-0.87024 -0.16237,-1.25587 -0.73987,-1.38245 -3.2499,-0.23067 -2.68806,1.23347 0.29726,0.77465 2.55496,0.79239 2.85043,0.0224 z m 6.66333,-0.13444 c 0.41194,-1.57527 -1.80085,-2.43079 -2.67569,-1.03448 -0.60412,0.96422 -0.0354,1.72364 1.29082,1.72364 0.89841,0 1.25047,-0.1752 1.38487,-0.68916 z m 6.70278,0 c 0.41194,-1.57527 -1.80086,-2.43079 -2.67569,-1.03448 -0.60412,0.96422 -0.0354,1.72364 1.29082,1.72364 0.8984,0 1.25046,-0.1752 1.38487,-0.68916 z m 6.539,-0.45737 c -0.0968,-1.00364 -0.23765,-1.14653 -1.13043,-1.14653 -1.12898,0 -1.85853,0.82535 -1.51677,1.71594 0.14819,0.38621 0.64097,0.57712 1.4896,0.57712 1.21822,0 1.2638,-0.0451 1.1576,-1.14653 z m 9.59084,0.0882 c 0.26829,-0.5013 0.26829,-0.90982 0,-1.41111 -0.6664,-1.24519 -2.82222,-0.70623 -2.82222,0.70555 0,1.41179 2.15582,1.95074 2.82222,0.70556 z m 5.07745,-0.0882 c 0.86633,-1.382 -1.53276,-2.78822 -2.50004,-1.46538 -0.59492,0.8136 -0.58079,1.03035 0.1124,1.72354 0.70089,0.70089 1.86537,0.57499 2.38764,-0.25816 z m 4.72978,0.37042 c 0.76151,-0.76151 0.50759,-2.01152 -0.45782,-2.25382 -1.32541,-0.33266 -1.94107,0.0561 -1.94107,1.22557 0,1.35131 1.45301,1.97412 2.39889,1.02825 z m -66.26535,-5.90111 c 0.38022,-0.71045 0.16498,-1.7577 -0.37684,-1.83354 -0.17327,-0.0243 -0.55316,-0.0441 -0.8442,-0.0441 -1.02384,0 -1.18923,0.0947 -1.41649,0.81068 -0.48455,1.52669 1.87965,2.48308 2.63753,1.06696 z m 6.70278,0 c 0.38022,-0.71045 0.16498,-1.7577 -0.37684,-1.83354 -0.17327,-0.0243 -0.55316,-0.0441 -0.8442,-0.0441 -1.02384,0 -1.18923,0.0947 -1.41649,0.81068 -0.48455,1.52669 1.87965,2.48308 2.63753,1.06696 z m 6.70278,0 c 0.38022,-0.71045 0.16498,-1.7577 -0.37685,-1.83354 -0.17326,-0.0243 -0.51347,-0.0745 -0.756,-0.11156 -0.7669,-0.11731 -1.6757,0.50955 -1.6757,1.15584 0,1.44504 2.13629,2.04538 2.80855,0.78926 z m 6.70278,0 c 0.38022,-0.71045 0.16498,-1.7577 -0.37685,-1.83354 -0.17326,-0.0243 -0.51347,-0.0745 -0.756,-0.11156 -0.7669,-0.11731 -1.6757,0.50955 -1.6757,1.15584 0,1.44504 2.13629,2.04538 2.80855,0.78926 z m 6.70277,0 c 0.38022,-0.71045 0.16498,-1.7577 -0.37684,-1.83354 -0.17327,-0.0243 -0.51347,-0.0745 -0.75601,-0.11156 -0.7669,-0.11731 -1.67569,0.50955 -1.67569,1.15584 0,1.44504 2.13629,2.04538 2.80854,0.78926 z m 6.6528,0.10073 c 0.361,-0.64507 0.15254,-1.86595 -0.33026,-1.93427 -0.1714,-0.0243 -0.54976,-0.0441 -0.8408,-0.0441 -1.21704,0 -1.27441,0.17718 -0.68526,2.11667 0.19363,0.63745 1.47563,0.54194 1.85632,-0.1383 z m 6.70278,0 c 0.361,-0.64507 0.15254,-1.86595 -0.33027,-1.93427 -0.17139,-0.0243 -0.51007,-0.0745 -0.7526,-0.11156 -1.3444,-0.20565 -2.18389,1.27024 -1.25236,2.20176 0.61037,0.61037 1.95669,0.52047 2.33523,-0.15593 z m 6.70059,-0.74365 c 0.0608,-0.63059 -0.0583,-1.16637 -0.26458,-1.19062 -0.20632,-0.0243 -0.57357,-0.0745 -0.8161,-0.11156 -0.7669,-0.11731 -1.6757,0.50955 -1.6757,1.15584 0,0.91557 0.75478,1.51386 1.76141,1.39623 0.7135,-0.0834 0.90579,-0.32494 0.99497,-1.24989 z m 9.77261,0.60043 c 0.30788,-0.97006 -0.40292,-1.74696 -1.59833,-1.74696 -1.06181,0 -1.55511,0.73725 -1.2135,1.81359 0.30729,0.96818 2.49988,0.91623 2.81183,-0.0666 z m 4.93351,-0.51223 c 0,-0.96786 -0.10226,-1.05834 -1.19627,-1.05834 -1.45673,0 -2.1863,0.87617 -1.45915,1.75233 0.30018,0.3617 0.88449,0.53715 1.56704,0.47055 0.95053,-0.0928 1.08838,-0.24026 1.08838,-1.16454 z m 4.93889,0 c 0,-0.97355 -0.0985,-1.05834 -1.22989,-1.05834 -0.90598,0 -1.26225,0.16802 -1.35275,0.63797 -0.23194,1.20434 0.22085,1.70631 1.43369,1.58943 1.01682,-0.098 1.14895,-0.23244 1.14895,-1.16906 z m 4.6559,-35.80695 -1.44191,-2.82222 h -12.6313 -12.6313 v 2.82222 2.82222 h 14.07321 14.07321 z m 29.83777,-4.25454 c 2.86259,-0.79495 5.17834,-3.9407 5.17834,-7.03435 0,-3.87033 -3.44436,-7.4044 -7.21645,-7.4044 -2.6058,0 -6.11934,2.45626 -6.90086,4.82429 -0.65722,1.9914 -0.27109,5.11832 0.82787,6.70412 1.8466,2.66464 4.96574,3.78381 8.1111,2.91034 z m -25.71515,-6.40987 c 2.03841,-0.60906 4.22679,-2.8903 4.74433,-4.94564 0.54902,-2.18039 0.58424,-56.95646 0.0379,-58.9239 -0.48157,-1.73415 -2.25418,-3.72793 -4.0327,-4.5359 -1.34374,-0.61045 -3.64231,-0.64281 -46.16918,-0.65018 l -44.75503,-0.008 -1.63524,0.89056 c -1.76779,0.96275 -3.04114,2.53781 -3.58514,4.43464 -0.49423,1.72327 -0.45614,57.22456 0.0405,59.0132 0.4934,1.77701 2.59379,3.99723 4.37884,4.62868 1.95035,0.68992 88.68174,0.78171 90.97574,0.0963 z m 41.87655,-46.0837 c 0.87405,-1.07987 0.85993,-2.6855 -0.0315,-3.57689 -0.68342,-0.68342 -1.17592,-0.70555 -15.69861,-0.70555 h -14.99305 v 2.66025 2.66026 l 15.0245,-0.10262 15.02451,-0.10262 z m -0.0315,-18.04078 c 0.95072,-0.95071 0.93195,-2.86067 -0.0367,-3.73768 -0.70194,-0.63553 -1.5667,-0.67743 -15.91901,-0.77122 l -15.17675,-0.0992 0.21559,0.80473 c 0.11858,0.4426 0.21776,1.63817 0.22041,2.65682 l 0.005,1.85208 H 377.951 c 14.52269,0 15.01519,-0.0221 15.69861,-0.70556 z m -23.20912,113.81455 c 0.2822,-4.39727 2.2765,-6.43431 6.69122,-6.83462 l 2.05401,-0.18626 -0.0112,3.13581 c -0.008,2.19658 -0.16635,3.34091 -0.52916,3.82059 -0.28487,0.37663 -0.51795,1.13069 -0.51795,1.67569 v 0.99091 h -3.92695 -3.92695 z m 11.10865,2.3785 c -0.13571,-0.13571 -0.24675,-0.6771 -0.24675,-1.20309 0,-0.52599 -0.23813,-1.15397 -0.52917,-1.39551 -0.39878,-0.33096 -0.52916,-1.22301 -0.52916,-3.62033 v -3.18116 l 1.94238,0.20047 c 4.18309,0.43173 6.40819,2.83407 6.60413,7.13018 l 0.0965,2.11667 -3.54561,0.0998 c -1.95009,0.0549 -3.65665,-0.0113 -3.79236,-0.14699 z m -4.95187,-11.70742 c -0.54479,-0.60198 -0.51757,-0.70304 0.43513,-1.61579 1.2825,-1.22871 3.28896,-1.54181 5.08131,-0.79291 1.5546,0.64955 1.97939,1.46966 1.1769,2.27215 -0.53508,0.53508 -0.65649,0.53116 -1.64571,-0.0532 -1.17658,-0.69502 -2.81454,-0.5443 -3.53633,0.32541 -0.54976,0.66242 -0.8102,0.63904 -1.5113,-0.13566 z m -2.88295,-3.2421 c -0.62343,-0.68888 -0.6174,-0.73546 0.20991,-1.62183 3.0027,-3.21706 8.67909,-3.3751 12.18667,-0.3393 1.35565,1.17332 1.36045,1.18665 0.69306,1.92594 -0.83577,0.92581 -1.3366,0.93789 -2.13871,0.0516 -0.34487,-0.38108 -1.32012,-0.95756 -2.1672,-1.28107 -2.1455,-0.81937 -4.39626,-0.50915 -6.36275,0.87696 -0.85598,0.60335 -1.60644,1.09699 -1.66772,1.09699 -0.0613,0 -0.40023,-0.31916 -0.75326,-0.70925 z m 14.10833,-3.43913 c -2.40497,-2.11379 -4.88843,-3.07859 -7.93137,-3.08125 -2.9575,-0.002 -4.31701,0.43494 -6.82575,2.19669 -1.79564,1.26099 -2.41156,1.29078 -3.02409,0.14626 -0.31265,-0.5842 -0.16625,-0.87298 0.93096,-1.83634 0.71608,-0.62873 2.18233,-1.55606 3.25834,-2.06075 1.71803,-0.80583 2.40763,-0.91762 5.66054,-0.91762 3.27379,0 3.93678,0.10905 5.70623,0.93854 2.09354,0.98141 5.22988,3.59458 5.22988,4.35749 0,0.24401 -0.35995,0.67951 -0.79988,0.96776 -0.74837,0.49035 -0.89034,0.44458 -2.20486,-0.71078 z"
         id="path45"
         inkscape:connector-curvature="0" />
    </g>
  </g>
</svg>
